<svg xmlns="http://www.w3.org/2000/svg" xmlns:xlink="http://www.w3.org/1999/xlink" xmlns:fi="http://pattern.flaticon.com/" x="0" y="0" width="240" height="240" viewBox="0 0 350 350"><rect x="0px" y="0px" width="100%" height="100%" opacity="0" fill="#ffffff"/><defs><g transform="matrix(0.6612648367881775 0 0 0.6612648367881775 4.856974525461737 4.98958766369401)" id="L1_11"><g><path d="m66.414 296.083v-46.553h379.149v46.553" fill="#fffbdf"/><path d="m212.943 99.966c0 25.522-28.699 46.212-28.699 46.212s-28.699-20.69-28.699-46.212 28.699-46.212 28.699-46.212 28.699 20.69 28.699 46.212z" fill="#a0e5a5"/><path d="m423.591 178.3c-24.793 24.793-72.77 17.013-72.77 17.013s-7.78-47.977 17.013-72.77 72.77-17.013 72.77-17.013 7.78 47.977-17.013 72.77z" fill="#b8ecbc"/><circle cx="103" cy="165" r="30" fill="#ff7b79"/><circle cx="279" cy="184" r="30" fill="#ff9c9b"/><g><path d="m210.782 296.083h-144.368v44.953c0 57.54 46.645 104.185 104.185 104.185h170.779c57.54 0 104.185-46.645 104.185-104.185v-44.953h-144.369" fill="#ffad95"/><path d="m349.664 501.977v-19.449c0-20.604-16.703-37.307-37.307-37.307h-112.737c-20.604 0-37.307 16.703-37.307 37.307v19.449z" fill="#ff9171"/></g><path d="m324.226 46.756-42.845 42.845c-6.356 6.356-16.66 6.356-23.016 0l-2.213-2.213c-15.4-15.4-15.4-40.369 0-55.77l10.092-10.092c15.4-15.4 40.369-15.4 55.77 0l2.213 2.213c6.355 6.357 6.355 16.661-.001 23.017z" fill="#fff7bf"/></g><g><path d="m256.168 306.086c-4.068 0-7.793-2.558-9.29-6.331-1.536-3.873-.443-8.445 2.696-11.195 3.184-2.789 7.927-3.251 11.591-1.137 3.667 2.116 5.646 6.456 4.812 10.613-.923 4.612-5.098 8.05-9.809 8.05z"/><path d="m445.563 239.529h-379.149c-5.523 0-10 4.478-10 10v91.506c0 59.825 46.246 109.052 104.866 113.809-5.64 7.788-8.968 17.354-8.968 27.684v19.449c0 5.522 4.477 10 10 10h187.352c5.523 0 10-4.478 10-10v-19.449c0-10.329-3.328-19.895-8.968-27.684 58.62-4.757 104.866-53.984 104.866-113.809v-91.506c.001-5.522-4.477-10-9.999-10zm-105.899 252.448h-167.351v-9.449c0-15.057 12.25-27.307 27.308-27.307h112.736c15.058 0 27.308 12.25 27.308 27.307v9.449zm95.899-150.942c0 51.935-42.251 94.186-94.185 94.186h-170.779c-51.934 0-94.185-42.251-94.185-94.186v-34.952h134.368c5.523 0 10-4.478 10-10s-4.477-10-10-10h-134.368v-26.554h359.148v26.554h-134.368c-5.523 0-10 4.478-10 10s4.477 10 10 10h134.368v34.952z"/><path d="m316.946 68.179 14.352-14.352c10.244-10.245 10.244-26.913 0-37.157l-2.214-2.215c-19.274-19.273-50.636-19.273-69.912 0l-10.091 10.092c-9.337 9.337-14.479 21.752-14.479 34.956s5.142 25.619 14.478 34.954l2.214 2.216c5.123 5.122 11.85 7.683 18.579 7.683 6.728 0 13.458-2.562 18.58-7.683l14.352-14.352 14.561 14.561c1.953 1.952 4.512 2.929 7.071 2.929s5.119-.977 7.071-2.929c3.905-3.905 3.905-10.237 0-14.143zm-42.635 14.351c-2.447 2.447-6.428 2.445-8.873.002l-2.214-2.216c-11.477-11.477-11.477-30.15 0-41.627l10.091-10.092c5.739-5.738 13.276-8.607 20.814-8.607 7.537 0 15.075 2.869 20.813 8.606l2.214 2.215c2.447 2.446 2.447 6.427 0 8.873z"/><path d="m279.353 225.261c-22.546 0-40.888-18.342-40.888-40.888s18.342-40.888 40.888-40.888c22.545 0 40.888 18.342 40.888 40.888s-18.343 40.888-40.888 40.888zm0-61.776c-11.518 0-20.888 9.37-20.888 20.888s9.371 20.888 20.888 20.888 20.888-9.37 20.888-20.888-9.37-20.888-20.888-20.888z"/><path d="m103.429 206.47c-22.545 0-40.888-18.342-40.888-40.888s18.342-40.888 40.888-40.888 40.888 18.342 40.888 40.888-18.342 40.888-40.888 40.888zm0-61.776c-11.518 0-20.888 9.37-20.888 20.888s9.37 20.888 20.888 20.888 20.888-9.37 20.888-20.888-9.37-20.888-20.888-20.888z"/><path d="m368.048 206.477c-10.543 0-18.028-1.163-18.828-1.293-4.25-.689-7.582-4.021-8.271-8.271-.351-2.165-8.276-53.353 19.813-81.441 28.088-28.09 79.276-20.165 81.441-19.813 4.25.689 7.582 4.021 8.271 8.271.351 2.165 8.277 53.353-19.813 81.441-17.712 17.713-44.615 21.106-62.613 21.106zm-8.171-20.289c13.284.881 41.105.578 56.643-14.96 15.51-15.51 15.834-43.26 14.963-56.579-13.307-.869-41.066-.548-56.579 14.965-14.526 14.526-16.05 41.237-15.027 56.574z"/><path d="m184.244 156.178c-2.051 0-4.102-.63-5.848-1.889-1.341-.967-32.851-24.03-32.851-54.323 0-30.292 31.509-53.356 32.851-54.323 3.492-2.518 8.204-2.518 11.696 0 1.341.967 32.851 24.031 32.851 54.323 0 30.293-31.509 53.356-32.851 54.323-1.746 1.259-3.797 1.889-5.848 1.889zm-.001-89.416c-7.974 7.416-18.698 20.288-18.698 33.204 0 13.639 11.474 26.44 18.733 33.173 7.97-7.421 18.664-20.274 18.664-33.173.001-12.912-10.718-25.781-18.699-33.204z"/></g></g></defs><g fi:class="KUsePattern"><pattern id="pattern_L1_11" width="350" height="350" patternUnits="userSpaceOnUse"><use xlink:href="#L1_11" x="-350" y="-350"/><use xlink:href="#L1_11" x="0" y="-350"/><use xlink:href="#L1_11" x="350" y="-350"/><use xlink:href="#L1_11" x="-350" y="0"/><use xlink:href="#L1_11" x="0" y="0"/><use xlink:href="#L1_11" x="350" y="0"/><use xlink:href="#L1_11" x="-350" y="350"/><use xlink:href="#L1_11" x="0" y="350"/><use xlink:href="#L1_11" x="350" y="350"/></pattern><rect x="0" y="0" width="100%" height="100%" fill="url(#pattern_L1_11)"/></g></svg>