<svg xmlns="http://www.w3.org/2000/svg" xmlns:xlink="http://www.w3.org/1999/xlink" xmlns:fi="http://pattern.flaticon.com/" x="0" y="0" width="240" height="240" viewBox="0 0 350 350"><rect x="0px" y="0px" width="100%" height="100%" opacity="0" fill="#ffffff"/><defs><g transform="matrix(0.6735284328460693 0 0 0.6735284328460693 1.1954999328306712 3.8165537363247495)" id="L1_9"><g><g><path d="m339.126 104.509-53.11-15.876h-60.032l-113.045 33.793c-14.268 4.265-24.043 17.389-24.043 32.279h334.209" fill="#faf7f5"/><path d="m280.131 88.632h-48.263c-11.92 0-21.583-9.663-21.583-21.583 0-11.92 9.663-21.583 21.583-21.583h48.263c11.92 0 21.583 9.663 21.583 21.583 0 11.92-9.663 21.583-21.583 21.583z" fill="#a7bdcd"/></g><g><g><path d="m88.895 202.385v157.33c0 31.012 25.143 56.153 56.158 56.153h221.893c31.015 0 56.158-25.14 56.158-56.153v-157.33" fill="#faf7f5"/><path d="m423.104 202.385v-47.68h-334.209v47.68" fill="#ccf5fc"/></g><g fill="#a7bdcd"><path d="m463.349 245.777h-40.244v-43.392h40.244c11.982 0 21.696 9.714 21.696 21.696 0 11.982-9.714 21.696-21.696 21.696z"/><path d="m48.651 202.385h40.244v43.392h-40.244c-11.982 0-21.696-9.714-21.696-21.696 0-11.983 9.714-21.696 21.696-21.696z"/></g><path d="m395.169 502h-278.338v-16.773c0-17.172 13.921-31.093 31.093-31.093h216.153c17.172 0 31.093 13.921 31.093 31.093v16.773z" fill="#a7bdcd"/><path d="m284.604 425.533c0 15.796-12.807 28.601-28.604 28.601s-28.604-12.805-28.604-28.601c0-21.988 28.604-45.279 28.604-45.279s28.604 23.142 28.604 45.279z" fill="#ff7b79"/><g fill="#ff9c9b"><path d="m341.813 425.533c0 15.796-12.807 28.601-28.604 28.601s-28.604-12.805-28.604-28.601c0-21.988 28.604-45.279 28.604-45.279s28.604 23.142 28.604 45.279z"/><path d="m227.396 425.533c0 15.796-12.807 28.601-28.604 28.601s-28.604-12.805-28.604-28.601c0-21.988 28.604-45.279 28.604-45.279s28.604 23.142 28.604 45.279z"/></g></g><g><path d="m408.989 10c-39.963 0-72.359 32.393-72.359 72.352s32.396 72.352 72.359 72.352c38.164 0 69.405-29.549 72.142-67.011h-72.142z" fill="#fffbdf"/><path d="m408.989 10v77.694h72.142c.129-1.766.217-3.543.217-5.342 0-39.959-32.396-72.352-72.359-72.352z" fill="#ff7b79"/></g><path d="m88.895 202.385v80.587c-.612 11.967 9.09 21.668 21.058 21.668 11.968 0 21.67-9.701 21.67-21.668v-15.25c0 11.967 9.702 21.668 21.67 21.668 11.968 0 21.67-9.701 21.67-21.668v-65.337z" fill="#fff7bf"/></g><g><path d="m463.349 192.385h-30.244v-31.271c11.852-3.622 22.813-9.915 32.066-18.558 15.211-14.207 24.421-33.432 25.934-54.133.001-.017.002-.033.003-.05.164-2.246.241-4.16.241-6.02 0-45.41-36.947-82.353-82.36-82.353s-82.359 36.943-82.359 82.352c0 2.733.134 5.436.396 8.102l-20.473-6.12c3.262-4.969 5.161-10.909 5.161-17.284 0-17.415-14.168-31.583-31.582-31.583h-48.263c-17.415 0-31.583 14.168-31.583 31.583 0 6.375 1.899 12.315 5.161 17.284l-95.373 28.51c-18.357 5.488-31.179 22.702-31.179 41.86v37.68h-30.244c-17.478 0-31.696 14.219-31.696 31.696s14.219 31.696 31.696 31.696h30.244v103.938c0 36.477 29.678 66.153 66.158 66.153h15.136c.057 6.615 1.785 12.838 4.784 18.267h-17.05c-22.659 0-41.093 18.434-41.093 41.093v6.773h-19.498c-5.523 0-10 4.477-10 10s4.477 10 10 10h337.336c5.522 0 10-4.477 10-10s-4.478-10-10-10h-19.499v-6.773c0-22.659-18.435-41.093-41.093-41.093h-17.05c2.998-5.429 4.727-11.652 4.784-18.267h15.136c36.479 0 66.158-29.676 66.158-66.153v-103.937h30.244c17.478 0 31.696-14.219 31.696-31.696.001-17.477-14.218-31.696-31.695-31.696zm7.828-114.691h-52.188v-56.893c28.147 4.557 50.043 28.021 52.188 56.893zm-72.188-56.893v66.893c0 5.523 4.478 10 10 10h60.427c-6.892 27.08-31.621 47.011-60.427 47.011-34.385 0-62.359-27.971-62.359-62.353 0-30.977 22.713-56.751 52.359-61.551zm-167.12 34.666h48.263c6.387 0 11.582 5.196 11.582 11.583s-5.195 11.583-11.582 11.583h-48.263c-6.387 0-11.583-5.196-11.583-11.583s5.196-11.583 11.583-11.583zm-116.066 76.539 111.644-33.374h57.106l47.981 14.343c4.955 12.324 12.808 23.184 22.711 31.73h-254.104c2.816-5.99 8.083-10.732 14.662-12.699zm-16.907 80.379h66.069v55.337c0 6.434-5.235 11.668-11.67 11.668s-11.67-5.234-11.67-11.668c0-5.523-4.477-10-10-10s-10 4.477-10 10v15.25c0 6.434-5.235 11.668-11.67 11.668-3.178 0-6.099-1.232-8.226-3.471-1.681-1.769-2.662-4.001-2.833-6.389zm-50.245 23.392c-6.449 0-11.696-5.247-11.696-11.696s5.247-11.696 11.696-11.696h30.244v23.392zm131.536 189.756c0-10.629 10.666-23.727 18.619-31.72 7.948 7.962 18.589 21.019 18.589 31.72 0 10.257-8.346 18.602-18.604 18.602-10.258-.001-18.604-8.345-18.604-18.602zm75.813 18.601c-10.258 0-18.604-8.345-18.604-18.602 0-10.629 10.666-23.727 18.619-31.72 7.948 7.962 18.589 21.019 18.589 31.72 0 10.258-8.345 18.602-18.604 18.602zm129.169 41.093v6.773h-258.338v-6.773c0-11.63 9.462-21.093 21.093-21.093h216.153c11.63 0 21.092 9.463 21.092 21.093zm-90.565-59.694c0-10.628 10.666-23.726 18.618-31.719 7.948 7.962 18.59 21.019 18.59 31.719 0 10.257-8.346 18.602-18.604 18.602-10.258-.001-18.604-8.345-18.604-18.602zm118.5-65.818c0 25.449-20.706 46.153-46.158 46.153h-20.056c-8.425-17.629-24.945-31.408-27.393-33.388-3.679-2.975-8.936-2.966-12.604.02-2.013 1.639-13.552 11.313-22.266 24.499-8.727-13.226-20.319-22.885-22.338-24.519-3.678-2.975-8.937-2.966-12.604.02-2.013 1.639-13.552 11.313-22.267 24.499-8.728-13.226-20.319-22.886-22.338-24.519-3.676-2.975-8.936-2.966-12.604.02-2.442 1.988-18.906 15.804-27.336 33.368h-20.088c-25.452 0-46.158-20.704-46.158-46.153v-47.081c3.503 1.311 7.251 2.006 11.059 2.006 12.858 0 23.951-7.701 28.907-18.734 4.331 2.226 9.238 3.484 14.433 3.484 17.463 0 31.67-14.206 31.67-31.668v-55.337h30.734c5.523 0 10-4.477 10-10s-4.477-10-10-10h-116.801v-27.68h314.209v27.68h-106.78c-5.522 0-10 4.477-10 10s4.478 10 10 10h106.779zm50.245-123.938h-30.244v-23.392h30.244c6.449 0 11.696 5.247 11.696 11.696s-5.247 11.696-11.696 11.696z"/><path d="m261.2 212.38c-4.127 0-7.903-2.613-9.36-6.472-1.469-3.89-.303-8.466 2.884-11.149 3.204-2.698 7.833-3.109 11.467-1.031 3.623 2.072 5.588 6.347 4.839 10.45-.857 4.692-5.056 8.202-9.83 8.202z"/></g></g></defs><g fi:class="KUsePattern"><pattern id="pattern_L1_9" width="350" height="350" patternUnits="userSpaceOnUse"><use xlink:href="#L1_9" x="-350" y="-350"/><use xlink:href="#L1_9" x="0" y="-350"/><use xlink:href="#L1_9" x="350" y="-350"/><use xlink:href="#L1_9" x="-350" y="0"/><use xlink:href="#L1_9" x="0" y="0"/><use xlink:href="#L1_9" x="350" y="0"/><use xlink:href="#L1_9" x="-350" y="350"/><use xlink:href="#L1_9" x="0" y="350"/><use xlink:href="#L1_9" x="350" y="350"/></pattern><rect x="0" y="0" width="100%" height="100%" fill="url(#pattern_L1_9)"/></g></svg>