<svg xmlns="http://www.w3.org/2000/svg" xmlns:xlink="http://www.w3.org/1999/xlink" xmlns:fi="http://pattern.flaticon.com/" x="0" y="0" width="360" height="360" viewBox="0 0 350.00000000000006 350.00000000000006"><rect x="0px" y="0px" width="100%" height="100%" opacity="0" fill="#ffffff"/><defs><g transform="matrix(0.6722903847694397 0 0 0.6722903847694397 -1.4867163519955966 5.669175922870636)" id="L1_1"><path d="m351.355 309.886h-41.649l-12.665-54.719c-12.474 5.812-26.382 9.059-41.04 9.059-14.333 0-27.95-3.102-40.2-8.667l-12.332 54.327h-42.823c-70.057 0-126.849 56.792-126.849 126.849v65.265h444.408v-65.265c-.001-70.056-56.793-126.849-126.85-126.849z" fill="#ffdad5"/><path d="m478.2 436.73v65.27h-444.399v-65.27c0-70.054 56.784-126.838 126.838-126.838h42.823l52.796 114.577 53.796-114.577h41.296c70.065 0 126.85 56.784 126.85 126.838z" fill="#ff7a7a"/><path d="m376.467 152.729c0 12.777-10.358 23.135-23.135 23.135-.134 0-.269-.022-.414-.022-2.262 24.781-13.807 46.874-31.13 62.775s-40.413 25.61-65.787 25.61c-50.738 0-92.394-38.823-96.918-88.385-.146 0-.28.022-.414.022-12.777 0-23.135-10.358-23.135-23.135s10.358-23.135 23.135-23.135c3.953-.985-1.878-14.501-3.535-24.781l20.992 19.518c6.652 5.106 16.226 6.271 24.154 2.822 10.795-4.714 28.835-10.246 53.974-10.246 25.565 0 43.784 5.722 54.511 10.481 7.626 3.37 16.797 2.598 23.504-2.016l24.893-20.298c.571 8.802-8.958 23.288-3.83 24.52 12.777.001 23.135 10.359 23.135 23.135z" fill="#ffdad5"/><path d="m203.467 309.886-50.801 45.308 103.593 69.269z" fill="#f9f5f3"/><path d="m310.05 309.886 47.546 45.308-101.337 69.269z" fill="#f9f5f3"/><path d="m254.256 74.82s-72.506-.113-99.122 29.994l20.992 19.517c6.656 5.102 16.223 6.275 24.154 2.817 10.794-4.705 28.835-10.241 53.976-10.241 25.562 0 43.784 5.722 54.512 10.476 7.62 3.377 16.789 2.602 23.497-2.012l24.897-20.297c-26.616-30.107-102.906-30.254-102.906-30.254z" fill="#ff7a7a"/><path d="m357.162 105.075c-26.612-30.106-102.909-30.26-102.909-30.26s-72.497-.107-99.119 29.998c0 0-1.261-94.814 100.156-94.814 101.405.001 101.872 95.076 101.872 95.076z" fill="#ff7a7a"/><g><path d="m245.177 205.515h17.633c5.523 0 10-4.477 10-10s-4.477-10-10-10h-2.701l6.992-16.979c2.103-5.107-.332-10.952-5.439-13.054-5.106-2.104-10.951.333-13.054 5.439l-12.677 30.787c-1.271 3.085-.918 6.6.938 9.372 1.856 2.771 4.972 4.435 8.308 4.435z"/><path d="m360.353 447.845h-38.99c-5.523 0-10 4.477-10 10s4.477 10 10 10h38.99c5.523 0 10-4.477 10-10s-4.478-10-10-10z"/><path d="m351.355 299.886h-33.699l-9.117-39.385c7.145-4.017 13.863-8.873 20.011-14.516 17.715-16.26 29.355-37.765 33.292-61.228 14.161-3.766 24.625-16.697 24.625-32.027 0-14.636-9.538-27.086-22.726-31.46 1.731-4.987 3.561-10.55 3.413-16.019.001-.075.008-.149.008-.225-.005-1.072-.288-26.558-14.104-52.228-12.963-24.086-40.449-52.798-97.769-52.798-33.861 0-60.82 9.921-80.128 29.488-28.831 29.217-30.002 69.591-30.027 74.927-.229 5.521 2.275 11.418 3.655 16.684-13.459 4.214-23.254 16.8-23.254 31.631 0 15.33 10.464 28.262 24.625 32.027 3.936 23.463 15.576 44.969 33.29 61.23 6.392 5.868 13.403 10.881 20.867 14.988l-8.833 38.911h-34.838c-23.715 0-47.09 6.169-67.598 17.842-4.8 2.732-6.476 8.837-3.744 13.638 2.732 4.799 8.838 6.477 13.637 3.744 17.499-9.959 37.452-15.224 57.705-15.224h16.586l-31.221 27.845c-2.309 2.059-3.534 5.071-3.32 8.157.215 3.086 1.846 5.899 4.417 7.619l99.151 66.299v62.194h-138.709v-34.155c0-5.523-4.477-10-10-10s-10 4.477-10 10v34.155h-43.754v-55.265c0-14.171 2.514-28.029 7.473-41.189 1.947-5.168-.664-10.936-5.832-12.884-5.167-1.946-10.937.664-12.884 5.832-5.811 15.422-8.757 31.653-8.757 48.241v65.265c0 5.523 4.477 10 10 10h444.408c5.523 0 10-4.477 10-10v-65.265c0-75.459-61.39-136.849-136.849-136.849zm-38.153 26.817 28.551 27.207-60.852 41.596zm-58.946-219.796c-19.711 0-39.818 3.16-57.973 11.074-4.338 1.89-9.877 1.421-13.748-1.347l-12.549-11.667c22.868-16.199 56.968-20.148 84.26-20.148 28.386.083 63.356 3.701 87.404 20l-15.339 12.504c-3.801 2.454-9.174 2.831-13.491.917-11.669-5.17-31.3-11.333-58.564-11.333zm-64.729-63.504c15.405-15.529 37.53-23.403 65.762-23.403 37.802 0 64.658 14.017 79.823 41.661 3.987 7.268 6.655 14.609 8.441 21.138-26.739-13.575-59.69-17.93-89.286-17.983-28.626 0-60.27 4.427-85.957 17.799 3.092-12.114 9.19-27.087 21.217-39.212zm-20.486 131.53c-.487-5.342-5.32-9.374-10.632-9.071-7.123-.139-12.875-5.977-12.875-13.132 0-7.243 5.892-13.135 13.135-13.135 4.905 0 9.059-3.508 10.648-7.939 8.98 8.351 24.118 9.381 34.965 4.662 15.629-6.826 33.013-9.41 49.972-9.41 23.776 0 40.56 5.232 50.468 9.628 13.309 5.879 26.588 2.523 37.402-6.295 1.145 5.177 5.787 9.354 11.208 9.354 7.243 0 13.135 5.892 13.135 13.135 0 7.155-5.751 12.993-12.875 13.132-5.321-.307-10.145 3.731-10.633 9.071-4.049 44.35-42.489 79.294-86.959 79.294-44.508 0-82.911-34.951-86.959-79.294zm55.998 94.744c21.043 6.349 44.03 6.046 64.882-.921l9.375 40.504-42.953 91.491-42.372-91.964 9.019-39.729c.683.206 1.366.412 2.049.619zm-56.078 84.383 31.078-27.717 32.295 70.093zm299.243 137.94h-39.287v-34.155c0-5.523-4.477-10-10-10s-10 4.477-10 10v34.155h-142.658v-62.26l96.98-66.291c2.492-1.703 4.081-4.44 4.324-7.448s-.884-5.965-3.069-8.047l-29.455-28.068h16.316c64.431 0 116.849 52.418 116.849 116.849z"/><path d="m55.18 357.92c3.522 8.455 16.133 7.877 18.8-.929 2.62-8.651-7.142-16.069-14.798-11.413-4.153 2.527-5.839 7.861-4.002 12.342z"/></g></g></defs><g fi:class="KUsePattern"><pattern id="pattern_L1_1" width="350" height="350" patternUnits="userSpaceOnUse"><use xlink:href="#L1_1" x="-350" y="-350"/><use xlink:href="#L1_1" x="0" y="-350"/><use xlink:href="#L1_1" x="350" y="-350"/><use xlink:href="#L1_1" x="-350" y="0"/><use xlink:href="#L1_1" x="0" y="0"/><use xlink:href="#L1_1" x="350" y="0"/><use xlink:href="#L1_1" x="-350" y="350"/><use xlink:href="#L1_1" x="0" y="350"/><use xlink:href="#L1_1" x="350" y="350"/></pattern><rect x="0" y="0" width="100%" height="100%" fill="url(#pattern_L1_1)"/></g></svg>