<svg xmlns="http://www.w3.org/2000/svg" xmlns:xlink="http://www.w3.org/1999/xlink" xmlns:fi="http://pattern.flaticon.com/" x="0" y="0" width="240" height="240" viewBox="0 0 350 350"><rect x="0px" y="0px" width="100%" height="100%" opacity="0" fill="#ffffff"/><defs><g transform="matrix(0.6354933381080627 0 0 0.6354933381080627 20.313972480845564 15.313705444335938)" id="L1_7"><path d="m460.479 54.611v300.373l-42.118-41.998-63.057 62.886v29.551h-280.115c0-24.634-19.978-44.611-44.611-44.611v-306.201c24.113 0 43.75-19.927 44.611-44.611h340.689c.821 23.763 19.126 43.37 42.308 44.551.761.04 1.522.06 2.293.06z" fill="#a0c8ff"/><path d="m139.7 201.592c0-59.503 48.237-107.74 107.74-107.74s107.74 48.237 107.74 107.74z" fill="#f9f5f3"/><path d="m481.423 502h-126.123v-126.123l63.061-62.888 63.062 62.888z" fill="#ffa76b"/><g><path d="m247.439 62.73c-5.523 0-10 4.477-10 10v11.551c-56.961 4.814-102.497 50.35-107.311 107.311h-18.74c-5.523 0-10 4.477-10 10s4.477 10 10 10h272.102c5.523 0 10-4.477 10-10s-4.477-10-10-10h-18.74c-4.814-56.961-50.35-102.497-107.311-107.311v-11.551c0-5.523-4.477-10-10-10zm97.232 128.862h-194.463c5.023-49.215 46.713-87.74 97.232-87.74s92.208 38.525 97.231 87.74z"/><path d="m301.677 257.36h-116.628c-5.523 0-10 4.477-10 10s4.477 10 10 10h116.628c5.523 0 10-4.477 10-10s-4.477-10-10-10z"/><path d="m488.484 368.797-18.006-17.957v-296.229c0-5.523-4.477-10-10-10-.594 0-1.181-.016-1.784-.047-17.761-.906-32.179-16.24-32.823-34.91-.185-5.384-4.605-9.654-9.994-9.654h-126.394c-5.523 0-10 4.477-10 10s4.477 10 10 10h117.561c4.583 22.033 21.865 39.52 43.434 43.668v267.227l-25.056-24.987c-3.903-3.893-10.22-3.893-14.123 0l-27.679 27.603c-2.204-4.564-3.44-9.68-3.44-15.079 0-19.185 15.608-34.792 34.793-34.792 5.523 0 10-4.477 10-10s-4.477-10-10-10c-30.213 0-54.793 24.58-54.793 54.792 0 10.94 3.236 21.133 8.782 29.697l-20.724 20.668c-1.881 1.876-2.938 4.424-2.938 7.081v19.547h-261.029c-4.108-22.111-21.583-39.586-43.694-43.694v-288.061c10.535-2.008 20.275-7.181 28.112-15.053 7.844-7.879 13.125-17.805 15.345-28.617h117.408c5.523 0 10-4.477 10-10s-4.477-10-10-10h-126.254c-5.387 0-9.806 4.268-9.994 9.651-.684 19.604-15.89 34.96-34.618 34.96-5.523 0-10 4.477-10 10v306.201c0 5.523 4.477 10 10 10 19.085 0 34.611 15.527 34.611 34.612 0 5.523 4.477 10 10 10h270.113v86.576c0 5.523 4.477 10 10 10h126.123c5.523 0 10-4.477 10-10v-126.123c0-2.656-1.057-5.204-2.939-7.08zm-17.061 123.203h-106.123v-86.491c0-.029.004-.056.004-.085s-.004-.056-.004-.085v-25.312l17.401-17.353c9.059 6.627 20.214 10.551 32.273 10.551 5.523 0 10-4.477 10-10s-4.477-10-10-10c-6.52 0-12.624-1.806-17.845-4.939l21.233-21.175 53.062 52.917v111.972z"/><path d="m301.677 316.494h-116.628c-5.523 0-10 4.477-10 10s4.477 10 10 10h116.628c5.523 0 10-4.477 10-10s-4.477-10-10-10z"/><path d="m236.29 13.83c2.097 5.029 8.022 7.49 13.06 5.41 5.04-2.081 7.488-8.029 5.41-13.06-2.08-5.037-8.026-7.494-13.06-5.41-5.049 2.09-7.474 8.02-5.41 13.06z"/></g></g></defs><g fi:class="KUsePattern"><pattern id="pattern_L1_7" width="350" height="350" patternUnits="userSpaceOnUse"><use xlink:href="#L1_7" x="-350" y="-350"/><use xlink:href="#L1_7" x="0" y="-350"/><use xlink:href="#L1_7" x="350" y="-350"/><use xlink:href="#L1_7" x="-350" y="0"/><use xlink:href="#L1_7" x="0" y="0"/><use xlink:href="#L1_7" x="350" y="0"/><use xlink:href="#L1_7" x="-350" y="350"/><use xlink:href="#L1_7" x="0" y="350"/><use xlink:href="#L1_7" x="350" y="350"/></pattern><rect x="0" y="0" width="100%" height="100%" fill="url(#pattern_L1_7)"/></g></svg>