<svg xmlns="http://www.w3.org/2000/svg" xmlns:xlink="http://www.w3.org/1999/xlink" xmlns:fi="http://pattern.flaticon.com/" x="0" y="0" width="240" height="240" viewBox="0 0 350 350"><rect x="0px" y="0px" width="100%" height="100%" opacity="0" fill="#ffffff"/><defs><g transform="matrix(0.648200511932373 0 0 0.648200511932373 8.0606689453125 11.0606689453125)" id="L1_3"><path d="m459.524 10v99.176l-50.886-36.815-50.873 36.815-50.886-36.815-50.885 36.815-50.873-36.815-50.886 36.815-50.885-36.815-50.874 36.815v-99.176z" fill="#ffd88e"/><path d="m302.784 502h155.656v-106.185c0-58.103-5.9-116.046-17.609-172.828-5.849-28.391-10.252-57.07-13.186-85.919-1.811-17.848-3.076-35.75-3.775-53.683l-15.23-11.022-50.873 36.815-50.883-36.815-50.893 36.815-50.873-36.815-50.883 36.815-50.885-36.815-16.748 12.119c-1.791 46.239-7.317 60.297-16.536 105.588-6.875 32.701-10.317 66.191-13.011 99.461-2.833 34.989-4.577 70.131-4.577 105.241v107.228h161.292z" fill="#ffa76b"/><path d="m370.544 290.794c0 64.476-52.272 116.739-116.748 116.739s-116.748-52.263-116.748-116.739 52.272-116.748 116.748-116.748c16.14 0 31.524 3.281 45.507 9.208-2.295 3.982-3.595 8.6-3.595 13.531 0 14.02 10.554 25.569 24.159 27.136-4.636 6.203-7.392 13.9-7.392 22.242 0 20.5 16.619 37.119 37.119 37.119 7.438 0 14.37-2.194 20.177-5.954.515 4.424.773 8.913.773 13.466z" fill="#868eaf"/><circle cx="206" cy="272" r="19" fill="#ff7a7a"/><circle cx="285" cy="330" r="24" fill="#ff7a7a"/><g><path d="m464.072 118.082c3.346-1.709 5.451-5.149 5.451-8.906v-99.176c0-5.523-4.478-10-10-10h-407.046c-5.523 0-10 4.477-10 10v99.176c0 7.955 9.368 12.801 15.863 8.101l17.043-12.334c-1.797 21.656-4.903 35.828-9.393 56.299-16.795 76.571-23.512 155.172-23.512 233.529v107.229c0 5.523 4.477 10 10 10h161.292c5.523 0 10-4.477 10-10s-4.477-10-10-10h-151.292v-97.229c0-76.928 6.559-154.069 23.047-229.244 5.546-25.29 9.296-42.39 10.861-75.782l6.964-5.039 45.021 32.573c3.434 2.484 8.293 2.482 11.726-.001l45.02-32.572 45.01 32.572c3.44 2.489 8.295 2.484 11.729 0l45.026-32.573 45.022 32.573c3.431 2.482 8.288 2.488 11.726 0l45.011-32.572 5.441 3.938c.732 16.389 1.946 32.995 3.615 49.436 2.956 29.062 7.444 58.308 13.341 86.926 11.547 56.003 17.402 113.472 17.402 170.809v96.185h-145.656c-5.522 0-10 4.477-10 10s4.478 10 10 10h155.655c5.522 0 10-4.477 10-10v-106.185c0-58.691-5.993-117.519-17.814-174.847-5.76-27.955-10.144-56.523-13.031-84.911-1.09-10.739-1.956-21.545-2.641-32.316l18.709 13.536c3.043 2.203 7.065 2.515 10.41.805zm-14.549-28.483-35.024-25.34c-3.498-2.53-8.226-2.53-11.724.001l-45.011 32.573-45.02-32.572c-3.432-2.482-8.287-2.49-11.727-.002l-45.024 32.574-45.01-32.573c-3.435-2.486-8.295-2.483-11.729.001l-45.02 32.573-45.024-32.574c-3.437-2.485-8.285-2.488-11.725.001l-35.01 25.336v-69.597h387.047v69.599z"/><path d="m267.92 498.18c-2.067-5.042-8.036-7.49-13.06-5.41-5.033 2.085-7.488 8.017-5.41 13.05 2.079 5.034 8.033 7.496 13.06 5.41 5.023-2.085 7.507-8.016 5.41-13.05z"/><path d="m308.783 180.075c-.911-2.715-2.941-4.91-5.579-6.028-15.656-6.636-32.279-10.001-49.408-10.001-69.889 0-126.749 56.859-126.749 126.748 0 69.884 56.859 126.739 126.749 126.739 69.889 0 126.748-56.855 126.748-126.739 0-4.921-.283-9.842-.842-14.626-.401-3.434-2.547-6.416-5.674-7.888-3.128-1.473-6.795-1.224-9.695.654-24.768 16.044-54.113-15.404-36.456-39.026 2.142-2.867 2.589-6.66 1.172-9.946-1.417-3.287-4.483-5.565-8.038-5.974-12.027-1.385-19.143-15.157-13.045-25.74 1.43-2.482 1.727-5.457.817-8.173zm40.81 113.207c3.713 0 7.383-.434 10.944-1.282-.648 58.303-48.282 105.533-106.741 105.533-58.861 0-106.749-47.883-106.749-106.739 0-58.861 47.887-106.748 106.749-106.748 11.225 0 22.185 1.712 32.699 5.1-.521 2.5-.788 5.061-.788 7.639 0 14.144 7.893 26.602 19.712 32.922-1.943 5.212-2.945 10.758-2.945 16.456 0 25.982 21.137 47.119 47.119 47.119z"/><path d="m206.334 243.825c-16.017 0-29.048 13.031-29.048 29.049 0 16.017 13.031 29.048 29.048 29.048 16.018 0 29.049-13.031 29.049-29.048 0-16.018-13.031-29.049-29.049-29.049zm0 38.097c-4.989 0-9.048-4.059-9.048-9.048 0-4.99 4.059-9.049 9.048-9.049 4.99 0 9.049 4.059 9.049 9.049 0 4.989-4.059 9.048-9.049 9.048z"/><path d="m261.145 306.304c-6.472 6.472-10.037 15.078-10.037 24.231s3.565 17.759 10.037 24.231c6.472 6.473 15.077 10.037 24.231 10.037 9.153 0 17.759-3.564 24.23-10.037 6.473-6.473 10.037-15.078 10.037-24.231s-3.564-17.759-10.037-24.23c-6.472-6.473-15.077-10.037-24.23-10.037-9.154 0-17.76 3.564-24.231 10.036zm38.499 24.231c0 3.811-1.484 7.394-4.18 10.089-2.694 2.695-6.277 4.179-10.088 4.179-3.812 0-7.395-1.484-10.089-4.179-2.695-2.695-4.18-6.278-4.18-10.089s1.484-7.394 4.18-10.089c2.694-2.695 6.277-4.179 10.089-4.179 3.811 0 7.394 1.484 10.088 4.179 2.695 2.696 4.18 6.278 4.18 10.089z"/><path d="m267.903 251.287c2.33 0 4.67-.81 6.564-2.459 4.164-3.627 4.6-9.944.972-14.109l-13.583-15.594c-3.628-4.164-9.943-4.6-14.109-.972-4.165 3.627-4.6 9.944-.972 14.109l13.584 15.594c1.977 2.269 4.753 3.431 7.544 3.431z"/><path d="m213.578 325.446-17.579 7.191c-5.111 2.091-7.56 7.93-5.469 13.042 1.584 3.872 5.319 6.216 9.259 6.216 1.261 0 2.544-.24 3.783-.747l17.579-7.191c5.111-2.091 7.56-7.93 5.469-13.042s-7.93-7.558-13.042-5.469z"/><path d="m411.142 402.817h-32.311c-5.522 0-10 4.477-10 10s4.478 10 10 10h32.311c5.522 0 10-4.477 10-10s-4.478-10-10-10z"/><path d="m411.142 443.929h-32.311c-5.522 0-10 4.477-10 10s4.478 10 10 10h32.311c5.522 0 10-4.477 10-10s-4.478-10-10-10z"/></g></g></defs><g fi:class="KUsePattern"><pattern id="pattern_L1_3" width="350" height="350" patternUnits="userSpaceOnUse"><use xlink:href="#L1_3" x="-350" y="-350"/><use xlink:href="#L1_3" x="0" y="-350"/><use xlink:href="#L1_3" x="350" y="-350"/><use xlink:href="#L1_3" x="-350" y="0"/><use xlink:href="#L1_3" x="0" y="0"/><use xlink:href="#L1_3" x="350" y="0"/><use xlink:href="#L1_3" x="-350" y="350"/><use xlink:href="#L1_3" x="0" y="350"/><use xlink:href="#L1_3" x="350" y="350"/></pattern><rect x="0" y="0" width="100%" height="100%" fill="url(#pattern_L1_3)"/></g></svg>